<svg class="main-svg" xmlns="http://www.w3.org/2000/svg" xmlns:xlink="http://www.w3.org/1999/xlink" width="700" height="500" style="" viewBox="0 0 700 500"><rect x="0" y="0" width="700" height="500" style="fill: rgb(255, 255, 255); fill-opacity: 1;"/><defs id="defs-e11eb8"><g class="clips"/><g class="gradients"/><g class="patterns"/></defs><g class="bglayer"/><g class="layer-below"><g class="imagelayer"/><g class="shapelayer"/></g><g class="cartesianlayer"/><g class="polarlayer"/><g class="smithlayer"/><g class="ternarylayer"/><g class="geolayer"/><g class="funnelarealayer"/><g class="pielayer"><g class="trace" stroke-linejoin="round" style="opacity: 1;"><g class="slice"><path class="surface" d="M183.14543570436095,140.8534631939536a27.200000000000003,27.200000000000003 0 1 0 1.7045642956390663,-0.05346319395359274l0,-40.8a68,68 0 1 1 -4.261410739097665,0.13365798488398184Z" style="pointer-events: all; stroke-width: 0; fill: rgb(99, 110, 250); fill-opacity: 1; stroke: rgb(68, 68, 68); stroke-opacity: 1;"/><g class="slicetext"><text data-notex="1" class="slicetext" transform="translate(186.4481121710805,218.95252912900722)rotate(-1.7964775501511667)" text-anchor="middle" x="0" y="0" style="font-family: 'Open Sans', verdana, arial, sans-serif; font-size: 18px; fill: rgb(255, 255, 255); fill-opacity: 1; white-space: pre;">99%</text></g></g><g class="slice"><path class="surface" d="M184.85000000000002,140.8a27.200000000000003,27.200000000000003 0 0 0 -1.675955763237563,0.05168196223436894l-2.513933644856344,-40.722477056648444a68,68 0 0 1 4.189889408093907,-0.12920490558592235Z" style="pointer-events: all; stroke-width: 0; fill: rgb(239, 85, 59); fill-opacity: 1; stroke: rgb(68, 68, 68); stroke-opacity: 1;"/><g class="slicetext"><text data-notex="1" class="slicetext" transform="translate(141.3946844498123,74.17389982634788)" text-anchor="middle" x="0" y="0" style="font-family: 'Open Sans', verdana, arial, sans-serif; font-size: 18px; fill: rgb(42, 63, 95); fill-opacity: 1; white-space: pre;">0.981%</text></g><path class="textline" stroke-width="2" d="M182.7540594498123,100.03230890187545V67.17389982634788h-5.5" fill="none" style="stroke: rgb(42, 63, 95); stroke-opacity: 1;"/></g><g class="slice"><path class="surface" d="M183.17404423676246,140.85168196223435a27.200000000000003,27.200000000000003 0 0 0 -0.02860853240151009,0.0017812317192237971l-2.556846443458609,-40.71980520906961a68,68 0 0 1 0.07152133100377522,-0.004453079298059492Z" style="pointer-events: all; stroke-width: 0; fill: rgb(0, 204, 150); fill-opacity: 1; stroke: rgb(68, 68, 68); stroke-opacity: 1;"/><g class="slicetext"><text data-notex="1" class="slicetext" transform="translate(133.54622433981064,96.17389982634788)" text-anchor="middle" x="0" y="0" style="font-family: 'Open Sans', verdana, arial, sans-serif; font-size: 18px; fill: rgb(42, 63, 95); fill-opacity: 1; white-space: pre;">0.0168%</text></g></g><g class="titletext"><text data-notex="1" class="titletext" transform="translate(184.85000000000002,168)scale(0.8974302054135749)translate(0,7)" text-anchor="middle" x="0" y="0" style="font-family: 'Open Sans', verdana, arial, sans-serif; font-size: 18px; fill: rgb(42, 63, 95); fill-opacity: 1; white-space: pre;">1 core</text></g></g><g class="trace" stroke-linejoin="round" style="opacity: 1;"><g class="slice"><path class="surface" d="M436.659627985997,141.17321191093018a27.200000000000003,27.200000000000003 0 1 0 4.490372014002991,-0.3732119109301721l0,-40.8a68,68 0 1 1 -11.225930035007476,0.9330297773254301Z" style="pointer-events: all; stroke-width: 0; fill: rgb(99, 110, 250); fill-opacity: 1; stroke: rgb(68, 68, 68); stroke-opacity: 1;"/><g class="slicetext"><text data-notex="1" class="slicetext" transform="translate(445.2158589422922,216.91917613735671)rotate(-4.751150250610408)" text-anchor="middle" x="0" y="0" style="font-family: 'Open Sans', verdana, arial, sans-serif; font-size: 18px; fill: rgb(255, 255, 255); fill-opacity: 1; white-space: pre;">97.4%</text></g></g><g class="slice"><path class="surface" d="M441.15000000000003,140.8a27.200000000000003,27.200000000000003 0 0 0 -4.224118081389828,0.33000136891564014l-6.336177122084741,-40.304997946626536a68,68 0 0 1 10.560295203474569,-0.8250034222891003Z" style="pointer-events: all; stroke-width: 0; fill: rgb(239, 85, 59); fill-opacity: 1; stroke: rgb(68, 68, 68); stroke-opacity: 1;"/><g class="slicetext"><text data-notex="1" class="slicetext" transform="translate(400.22876394428755,75.16047759235511)" text-anchor="middle" x="0" y="0" style="font-family: 'Open Sans', verdana, arial, sans-serif; font-size: 18px; fill: rgb(42, 63, 95); fill-opacity: 1; white-space: pre;">2.48%</text></g><path class="textline" stroke-width="2" d="M435.85376394428755,100.20656459772694V68.16047759235511h-5.5" fill="none" style="stroke: rgb(42, 63, 95); stroke-opacity: 1;"/></g><g class="slice"><path class="surface" d="M436.92588191861023,141.13000136891563a27.200000000000003,27.200000000000003 0 0 0 -0.26625393261317426,0.04321054201453194l-6.735558021004502,-40.24018213360474a68,68 0 0 1 0.6656348315329357,-0.10802635503632985Z" style="pointer-events: all; stroke-width: 0; fill: rgb(0, 204, 150); fill-opacity: 1; stroke: rgb(68, 68, 68); stroke-opacity: 1;"/><g class="slicetext"><text data-notex="1" class="slicetext" transform="translate(388.89737847020854,97.16047759235511)" text-anchor="middle" x="0" y="0" style="font-family: 'Open Sans', verdana, arial, sans-serif; font-size: 18px; fill: rgb(42, 63, 95); fill-opacity: 1; white-space: pre;">0.158%</text></g></g><g class="titletext"><text data-notex="1" class="titletext" transform="translate(441.15000000000003,168)scale(0.8974302054135749)translate(0,7)" text-anchor="middle" x="0" y="0" style="font-family: 'Open Sans', verdana, arial, sans-serif; font-size: 18px; fill: rgb(42, 63, 95); fill-opacity: 1; white-space: pre;">2 core</text></g></g><g class="trace" stroke-linejoin="round" style="opacity: 1;"><g class="slice"><path class="surface" d="M178.0789996225092,325.65624260117744a27.200000000000003,27.200000000000003 0 1 0 6.7710003774908305,-0.8562426011774278l0,-40.8a68,68 0 1 1 -16.927500943727075,2.1406065029435695Z" style="pointer-events: all; stroke-width: 0; fill: rgb(99, 110, 250); fill-opacity: 1; stroke: rgb(68, 68, 68); stroke-opacity: 1;"/><g class="slicetext"><text data-notex="1" class="slicetext" transform="translate(191.24555480295456,402.57480663251306)rotate(-7.207215576321005)" text-anchor="middle" x="0" y="0" style="font-family: 'Open Sans', verdana, arial, sans-serif; font-size: 18px; fill: rgb(255, 255, 255); fill-opacity: 1; white-space: pre;">96%</text></g></g><g class="slice"><path class="surface" d="M184.85000000000002,324.8a27.200000000000003,27.200000000000003 0 0 0 -6.377460257625248,0.7582148737569071l-9.566190386437873,-39.662677689364635a68,68 0 0 1 15.943650644063121,-1.8955371843922677Z" style="pointer-events: all; stroke-width: 0; fill: rgb(239, 85, 59); fill-opacity: 1; stroke: rgb(68, 68, 68); stroke-opacity: 1;"/><g class="slicetext"><text data-notex="1" class="slicetext" transform="translate(141.19703236993718,260.6588797224032)" text-anchor="middle" x="0" y="0" style="font-family: 'Open Sans', verdana, arial, sans-serif; font-size: 18px; fill: rgb(42, 63, 95); fill-opacity: 1; white-space: pre;">3.77%</text></g><path class="textline" stroke-width="2" d="M176.82203236993718,284.4755471274986V253.65887972240319h-5.5" fill="none" style="stroke: rgb(42, 63, 95); stroke-opacity: 1;"/></g><g class="slice"><path class="surface" d="M178.47253974237478,325.5582148737569a27.200000000000003,27.200000000000003 0 0 0 -0.39354011986559884,0.09802772742052071l-10.15650056623627,-39.515636098233855a68,68 0 0 1 0.9838502996639971,-0.24506931855130176Z" style="pointer-events: all; stroke-width: 0; fill: rgb(0, 204, 150); fill-opacity: 1; stroke: rgb(68, 68, 68); stroke-opacity: 1;"/><g class="slicetext"><text data-notex="1" class="slicetext" transform="translate(127.05459243676887,282.6588797224032)" text-anchor="middle" x="0" y="0" style="font-family: 'Open Sans', verdana, arial, sans-serif; font-size: 18px; fill: rgb(42, 63, 95); fill-opacity: 1; white-space: pre;">0.237%</text></g></g><g class="titletext"><text data-notex="1" class="titletext" transform="translate(184.85000000000002,352)scale(0.8974302054135749)translate(0,7)" text-anchor="middle" x="0" y="0" style="font-family: 'Open Sans', verdana, arial, sans-serif; font-size: 18px; fill: rgb(42, 63, 95); fill-opacity: 1; white-space: pre;">3 core</text></g></g><g class="trace" stroke-linejoin="round" style="opacity: 1;"><g class="slice"><path class="surface" d="M429.1757296683913,327.5775339077817a27.200000000000003,27.200000000000003 0 1 0 11.974270331608777,-2.777533907781674l0,-40.8a68,68 0 1 1 -29.93567582902194,6.943834769454185Z" style="pointer-events: all; stroke-width: 0; fill: rgb(99, 110, 250); fill-opacity: 1; stroke: rgb(68, 68, 68); stroke-opacity: 1;"/><g class="slicetext"><text data-notex="1" class="slicetext" transform="translate(452.2418565536706,399.81827810669415)rotate(-13.059295291377339)" text-anchor="middle" x="0" y="0" style="font-family: 'Open Sans', verdana, arial, sans-serif; font-size: 18px; fill: rgb(255, 255, 255); fill-opacity: 1; white-space: pre;">92.7%</text></g></g><g class="slice"><path class="surface" d="M441.15000000000003,324.8a27.200000000000003,27.200000000000003 0 0 0 -11.712177968937043,2.6507660562708057l-17.568266953405562,-36.82385091559379a68,68 0 0 1 29.280444922342607,-6.6269151406770135Z" style="pointer-events: all; stroke-width: 0; fill: rgb(239, 85, 59); fill-opacity: 1; stroke: rgb(68, 68, 68); stroke-opacity: 1;"/><g class="slicetext"><text data-notex="1" class="slicetext" transform="translate(390.5144998490051,266.8699839675242)" text-anchor="middle" x="0" y="0" style="font-family: 'Open Sans', verdana, arial, sans-serif; font-size: 18px; fill: rgb(42, 63, 95); fill-opacity: 1; white-space: pre;">7.08%</text></g><path class="textline" stroke-width="2" d="M426.1394998490051,285.6774179843925V259.8699839675242h-5.5" fill="none" style="stroke: rgb(42, 63, 95); stroke-opacity: 1;"/></g><g class="slice"><path class="surface" d="M429.437822031063,327.4507660562708a27.200000000000003,27.200000000000003 0 0 0 -0.26209236267172714,0.12676785151086564l-17.961405497413153,-36.63369913832749a68,68 0 0 1 0.6552309066793178,-0.31691962877716406Z" style="pointer-events: all; stroke-width: 0; fill: rgb(0, 204, 150); fill-opacity: 1; stroke: rgb(68, 68, 68); stroke-opacity: 1;"/><g class="slicetext"><text data-notex="1" class="slicetext" transform="translate(375.9165155956469,288.8699839675242)" text-anchor="middle" x="0" y="0" style="font-family: 'Open Sans', verdana, arial, sans-serif; font-size: 18px; fill: rgb(42, 63, 95); fill-opacity: 1; white-space: pre;">0.17%</text></g></g><g class="titletext"><text data-notex="1" class="titletext" transform="translate(441.15000000000003,352)scale(0.8974302054135749)translate(0,7)" text-anchor="middle" x="0" y="0" style="font-family: 'Open Sans', verdana, arial, sans-serif; font-size: 18px; fill: rgb(42, 63, 95); fill-opacity: 1; white-space: pre;">4 core</text></g></g></g><g class="iciclelayer"/><g class="treemaplayer"/><g class="sunburstlayer"/><g class="glimages"/><defs id="topdefs-e11eb8"><g class="clips"/><clipPath id="legende11eb8"><rect width="133" height="90" x="0" y="0"/></clipPath></defs><g class="layer-above"><g class="imagelayer"/><g class="shapelayer"/></g><g class="infolayer"><g class="legend" pointer-events="all" transform="translate(555.3199999999999,100)"><rect class="bg" shape-rendering="crispEdges" width="133" height="90" x="0" y="0" style="stroke: rgb(68, 68, 68); stroke-opacity: 1; fill: rgb(255, 255, 255); fill-opacity: 1; stroke-width: 0px;"/><g class="scrollbox" transform="" clip-path="url(#legende11eb8)"><g class="groups"><g class="traces" transform="translate(0,18.200000000000003)" style="opacity: 1;"><text class="legendtext" text-anchor="start" x="40" y="7.0200000000000005" style="font-family: 'Open Sans', verdana, arial, sans-serif; font-size: 18px; fill: rgb(42, 63, 95); fill-opacity: 1; white-space: pre;">altro</text><g class="layers" style="opacity: 1;"><g class="legendfill"/><g class="legendlines"/><g class="legendsymbols"><g class="legendpoints"><path class="legendpie" d="M6,6H-6V-6H6Z" transform="translate(20,0)" style="stroke-width: 0; fill: rgb(99, 110, 250); fill-opacity: 1; stroke: rgb(68, 68, 68); stroke-opacity: 1;"/></g></g></g><rect class="legendtoggle" x="0" y="-13.200000000000001" width="127.46875" height="26.400000000000002" style="fill: rgb(0, 0, 0); fill-opacity: 0;"/></g><g class="traces" transform="translate(0,44.6)" style="opacity: 1;"><text class="legendtext" text-anchor="start" x="40" y="7.0200000000000005" style="font-family: 'Open Sans', verdana, arial, sans-serif; font-size: 18px; fill: rgb(42, 63, 95); fill-opacity: 1; white-space: pre;">send recv</text><g class="layers" style="opacity: 1;"><g class="legendfill"/><g class="legendlines"/><g class="legendsymbols"><g class="legendpoints"><path class="legendpie" d="M6,6H-6V-6H6Z" transform="translate(20,0)" style="stroke-width: 0; fill: rgb(239, 85, 59); fill-opacity: 1; stroke: rgb(68, 68, 68); stroke-opacity: 1;"/></g></g></g><rect class="legendtoggle" x="0" y="-13.200000000000001" width="127.46875" height="26.400000000000002" style="fill: rgb(0, 0, 0); fill-opacity: 0;"/></g><g class="traces" transform="translate(0,71)" style="opacity: 1;"><text class="legendtext" text-anchor="start" x="40" y="7.0200000000000005" style="font-family: 'Open Sans', verdana, arial, sans-serif; font-size: 18px; fill: rgb(42, 63, 95); fill-opacity: 1; white-space: pre;">gather</text><g class="layers" style="opacity: 1;"><g class="legendfill"/><g class="legendlines"/><g class="legendsymbols"><g class="legendpoints"><path class="legendpie" d="M6,6H-6V-6H6Z" transform="translate(20,0)" style="stroke-width: 0; fill: rgb(0, 204, 150); fill-opacity: 1; stroke: rgb(68, 68, 68); stroke-opacity: 1;"/></g></g></g><rect class="legendtoggle" x="0" y="-13.200000000000001" width="127.46875" height="26.400000000000002" style="fill: rgb(0, 0, 0); fill-opacity: 0;"/></g></g></g><rect class="scrollbar" rx="20" ry="3" width="0" height="0" x="0" y="0" style="fill: rgb(128, 139, 164); fill-opacity: 1;"/></g><g class="g-gtitle"/></g></svg>