<svg class="main-svg" xmlns="http://www.w3.org/2000/svg" xmlns:xlink="http://www.w3.org/1999/xlink" width="700" height="500" style="" viewBox="0 0 700 500"><rect x="0" y="0" width="700" height="500" style="fill: rgb(255, 255, 255); fill-opacity: 1;"/><defs id="defs-59a269"><g class="clips"/><g class="gradients"/><g class="patterns"/></defs><g class="bglayer"/><g class="layer-below"><g class="imagelayer"/><g class="shapelayer"/></g><g class="cartesianlayer"/><g class="polarlayer"/><g class="smithlayer"/><g class="ternarylayer"/><g class="geolayer"/><g class="funnelarealayer"/><g class="pielayer"><g class="trace" stroke-linejoin="round" style="opacity: 1;"><g class="slice"><path class="surface" d="M183.26938676197014,140.8459641711998a27.200000000000003,27.200000000000003 0 1 0 1.5806132380298852,-0.045964171199807426l0,-40.8a68,68 0 1 1 -3.9515330950747125,0.11491042799951856Z" style="pointer-events: all; stroke-width: 0; fill: rgb(99, 110, 250); fill-opacity: 1; stroke: rgb(68, 68, 68); stroke-opacity: 1;"/><g class="slicetext"><text data-notex="1" class="slicetext" transform="translate(186.2768695710977,217.06710757853395)rotate(-1.6656896083761694)" text-anchor="middle" x="0" y="0" style="font-family: 'Open Sans', verdana, arial, sans-serif; font-size: 18px; fill: rgb(255, 255, 255); fill-opacity: 1; white-space: pre;">99.1%</text></g></g><g class="slice"><path class="surface" d="M184.85000000000002,140.8a27.200000000000003,27.200000000000003 0 0 0 -1.5508260875327096,0.0442466787196679l-2.3262391312990642,-40.733629981920494a68,68 0 0 1 3.8770652188317736,-0.11061669679916974Z" style="pointer-events: all; stroke-width: 0; fill: rgb(239, 85, 59); fill-opacity: 1; stroke: rgb(68, 68, 68); stroke-opacity: 1;"/><g class="slicetext"><text data-notex="1" class="slicetext" transform="translate(141.5513035487776,74.1492021334957)" text-anchor="middle" x="0" y="0" style="font-family: 'Open Sans', verdana, arial, sans-serif; font-size: 18px; fill: rgb(42, 63, 95); fill-opacity: 1; white-space: pre;">0.908%</text></g><path class="textline" stroke-width="2" d="M182.9106785487776,100.02765979967418V67.1492021334957h-5.5" fill="none" style="stroke: rgb(42, 63, 95); stroke-opacity: 1;"/></g><g class="slice"><path class="surface" d="M183.29917391246732,140.84424667871966a27.200000000000003,27.200000000000003 0 0 0 -0.02978715049715195,0.0017174924801338421l-2.370919857044792,-40.7310537432003a68,68 0 0 1 0.07446787624287987,-0.004293731200334605Z" style="pointer-events: all; stroke-width: 0; fill: rgb(0, 204, 150); fill-opacity: 1; stroke: rgb(68, 68, 68); stroke-opacity: 1;"/><g class="slicetext"><text data-notex="1" class="slicetext" transform="translate(133.85757525430392,96.1492021334957)" text-anchor="middle" x="0" y="0" style="font-family: 'Open Sans', verdana, arial, sans-serif; font-size: 18px; fill: rgb(42, 63, 95); fill-opacity: 1; white-space: pre;">0.0175%</text></g></g><g class="titletext"><text data-notex="1" class="titletext" transform="translate(184.85000000000002,168)scale(0.8974302054135749)translate(0,7)" text-anchor="middle" x="0" y="0" style="font-family: 'Open Sans', verdana, arial, sans-serif; font-size: 18px; fill: rgb(42, 63, 95); fill-opacity: 1; white-space: pre;">1 core</text></g></g><g class="trace" stroke-linejoin="round" style="opacity: 1;"><g class="slice"><path class="surface" d="M437.00601192565017,141.11752684666743a27.200000000000003,27.200000000000003 0 1 0 4.143988074349848,-0.3175268466674311l0,-40.8a68,68 0 1 1 -10.359970185874621,0.7938171166685777Z" style="pointer-events: all; stroke-width: 0; fill: rgb(99, 110, 250); fill-opacity: 1; stroke: rgb(68, 68, 68); stroke-opacity: 1;"/><g class="slicetext"><text data-notex="1" class="slicetext" transform="translate(444.90028942168897,216.9443799853458)rotate(-4.381641115188586)" text-anchor="middle" x="0" y="0" style="font-family: 'Open Sans', verdana, arial, sans-serif; font-size: 18px; fill: rgb(255, 255, 255); fill-opacity: 1; white-space: pre;">97.6%</text></g></g><g class="slice"><path class="surface" d="M441.15000000000003,140.8a27.200000000000003,27.200000000000003 0 0 0 -3.8291714903199314,0.27088108203832917l-5.7437572354798965,-40.3936783769425a68,68 0 0 1 9.572928725799828,-0.6772027050958229Z" style="pointer-events: all; stroke-width: 0; fill: rgb(239, 85, 59); fill-opacity: 1; stroke: rgb(68, 68, 68); stroke-opacity: 1;"/><g class="slicetext"><text data-notex="1" class="slicetext" transform="translate(400.7265740108596,74.97066257977309)" text-anchor="middle" x="0" y="0" style="font-family: 'Open Sans', verdana, arial, sans-serif; font-size: 18px; fill: rgb(42, 63, 95); fill-opacity: 1; white-space: pre;">2.25%</text></g><path class="textline" stroke-width="2" d="M436.3515740108596,100.16951195792012V67.97066257977309h-5.5" fill="none" style="stroke: rgb(42, 63, 95); stroke-opacity: 1;"/></g><g class="slice"><path class="surface" d="M437.3208285096801,141.07088108203834a27.200000000000003,27.200000000000003 0 0 0 -0.3148165840299214,0.04664576462910191l-6.215982111524779,-40.32370972999885a68,68 0 0 1 0.7870414600748035,-0.11661441157275476Z" style="pointer-events: all; stroke-width: 0; fill: rgb(0, 204, 150); fill-opacity: 1; stroke: rgb(68, 68, 68); stroke-opacity: 1;"/><g class="slicetext"><text data-notex="1" class="slicetext" transform="translate(389.824004986876,96.97066257977309)" text-anchor="middle" x="0" y="0" style="font-family: 'Open Sans', verdana, arial, sans-serif; font-size: 18px; fill: rgb(42, 63, 95); fill-opacity: 1; white-space: pre;">0.186%</text></g></g><g class="titletext"><text data-notex="1" class="titletext" transform="translate(441.15000000000003,168)scale(0.8974302054135749)translate(0,7)" text-anchor="middle" x="0" y="0" style="font-family: 'Open Sans', verdana, arial, sans-serif; font-size: 18px; fill: rgb(42, 63, 95); fill-opacity: 1; white-space: pre;">2 core</text></g></g><g class="trace" stroke-linejoin="round" style="opacity: 1;"><g class="slice"><path class="surface" d="M177.88335529830124,325.70730402563686a27.200000000000003,27.200000000000003 0 1 0 6.9666447016987805,-0.9073040256368472l0,-40.8a68,68 0 1 1 -17.41661175424695,2.268260064092118Z" style="pointer-events: all; stroke-width: 0; fill: rgb(99, 110, 250); fill-opacity: 1; stroke: rgb(68, 68, 68); stroke-opacity: 1;"/><g class="slicetext"><text data-notex="1" class="slicetext" transform="translate(191.1894412083419,400.67677565392273)rotate(-7.420177159472132)" text-anchor="middle" x="0" y="0" style="font-family: 'Open Sans', verdana, arial, sans-serif; font-size: 18px; fill: rgb(255, 255, 255); fill-opacity: 1; white-space: pre;">95.9%</text></g></g><g class="slice"><path class="surface" d="M184.85000000000002,324.8a27.200000000000003,27.200000000000003 0 0 0 -6.602620473359146,0.8135375071841282l-9.903930710038718,-39.579693739223806a68,68 0 0 1 16.506551183397864,-2.0338437679603203Z" style="pointer-events: all; stroke-width: 0; fill: rgb(239, 85, 59); fill-opacity: 1; stroke: rgb(68, 68, 68); stroke-opacity: 1;"/><g class="slicetext"><text data-notex="1" class="slicetext" transform="translate(146.62806072546294,260.83390856724117)" text-anchor="middle" x="0" y="0" style="font-family: 'Open Sans', verdana, arial, sans-serif; font-size: 18px; fill: rgb(42, 63, 95); fill-opacity: 1; white-space: pre;">3.9%</text></g><path class="textline" stroke-width="2" d="M176.53431072546294,284.51037626501875V253.83390856724117h-5.5" fill="none" style="stroke: rgb(42, 63, 95); stroke-opacity: 1;"/></g><g class="slice"><path class="surface" d="M178.24737952664088,325.6135375071841a27.200000000000003,27.200000000000003 0 0 0 -0.36402422833961484,0.0937665184527134l-10.449967052548141,-39.43904396154473a68,68 0 0 1 0.910060570849037,-0.2344162961317835Z" style="pointer-events: all; stroke-width: 0; fill: rgb(0, 204, 150); fill-opacity: 1; stroke: rgb(68, 68, 68); stroke-opacity: 1;"/><g class="slicetext"><text data-notex="1" class="slicetext" transform="translate(132.26301356935247,282.83390856724117)" text-anchor="middle" x="0" y="0" style="font-family: 'Open Sans', verdana, arial, sans-serif; font-size: 18px; fill: rgb(42, 63, 95); fill-opacity: 1; white-space: pre;">0.22%</text></g></g><g class="titletext"><text data-notex="1" class="titletext" transform="translate(184.85000000000002,352)scale(0.8974302054135749)translate(0,7)" text-anchor="middle" x="0" y="0" style="font-family: 'Open Sans', verdana, arial, sans-serif; font-size: 18px; fill: rgb(42, 63, 95); fill-opacity: 1; white-space: pre;">3 core</text></g></g><g class="trace" stroke-linejoin="round" style="opacity: 1;"><g class="slice"><path class="surface" d="M417.174804282823,339.15360010263356a27.200000000000003,27.200000000000003 0 1 0 23.975195717177016,-14.35360010263354l0,-40.8a68,68 0 1 1 -59.93798929294253,35.884000256583846Z" style="pointer-events: all; stroke-width: 0; fill: rgb(99, 110, 250); fill-opacity: 1; stroke: rgb(68, 68, 68); stroke-opacity: 1;"/><g class="slicetext"><text data-notex="1" class="slicetext" transform="translate(466.36476824936386,394.11689049570515)rotate(-30.908342115930623)" text-anchor="middle" x="0" y="0" style="font-family: 'Open Sans', verdana, arial, sans-serif; font-size: 18px; fill: rgb(255, 255, 255); fill-opacity: 1; white-space: pre;">82.8%</text></g></g><g class="slice"><path class="surface" d="M441.15000000000003,324.8a27.200000000000003,27.200000000000003 0 0 0 -23.838455746028014,14.101602096261386l-35.75768361904202,-19.647596855607922a68,68 0 0 1 59.59613936507003,-35.25400524065346Z" style="pointer-events: all; stroke-width: 0; fill: rgb(239, 85, 59); fill-opacity: 1; stroke: rgb(68, 68, 68); stroke-opacity: 1;"/><g class="slicetext"><text data-notex="1" class="slicetext" transform="translate(418.33070566639896,313.4244725944043)rotate(-30.606372111877135)" text-anchor="middle" x="0" y="0" style="font-family: 'Open Sans', verdana, arial, sans-serif; font-size: 18px; fill: rgb(68, 68, 68); fill-opacity: 1; white-space: pre;">17%</text></g></g><g class="slice"><path class="surface" d="M417.31154425397204,338.9016020962614a27.200000000000003,27.200000000000003 0 0 0 -0.1367399711490009,0.25199800637215336l-35.96279357576552,-19.26959984604969a68,68 0 0 1 0.34184992787250224,-0.6299950159303833Z" style="pointer-events: all; stroke-width: 0; fill: rgb(0, 204, 150); fill-opacity: 1; stroke: rgb(68, 68, 68); stroke-opacity: 1;"/><g class="slicetext"><text data-notex="1" class="slicetext" transform="translate(340.02273059223626,324.0664358107235)" text-anchor="middle" x="0" y="0" style="font-family: 'Open Sans', verdana, arial, sans-serif; font-size: 18px; fill: rgb(42, 63, 95); fill-opacity: 1; white-space: pre;">0.168%</text></g></g><g class="titletext"><text data-notex="1" class="titletext" transform="translate(441.15000000000003,352)scale(0.8974302054135749)translate(0,7)" text-anchor="middle" x="0" y="0" style="font-family: 'Open Sans', verdana, arial, sans-serif; font-size: 18px; fill: rgb(42, 63, 95); fill-opacity: 1; white-space: pre;">4 core</text></g></g></g><g class="iciclelayer"/><g class="treemaplayer"/><g class="sunburstlayer"/><g class="glimages"/><defs id="topdefs-59a269"><g class="clips"/><clipPath id="legend59a269"><rect width="133" height="90" x="0" y="0"/></clipPath></defs><g class="layer-above"><g class="imagelayer"/><g class="shapelayer"/></g><g class="infolayer"><g class="legend" pointer-events="all" transform="translate(555.3199999999999,100)"><rect class="bg" shape-rendering="crispEdges" width="133" height="90" x="0" y="0" style="stroke: rgb(68, 68, 68); stroke-opacity: 1; fill: rgb(255, 255, 255); fill-opacity: 1; stroke-width: 0px;"/><g class="scrollbox" transform="" clip-path="url(#legend59a269)"><g class="groups"><g class="traces" transform="translate(0,18.200000000000003)" style="opacity: 1;"><text class="legendtext" text-anchor="start" x="40" y="7.0200000000000005" style="font-family: 'Open Sans', verdana, arial, sans-serif; font-size: 18px; fill: rgb(42, 63, 95); fill-opacity: 1; white-space: pre;">altro</text><g class="layers" style="opacity: 1;"><g class="legendfill"/><g class="legendlines"/><g class="legendsymbols"><g class="legendpoints"><path class="legendpie" d="M6,6H-6V-6H6Z" transform="translate(20,0)" style="stroke-width: 0; fill: rgb(99, 110, 250); fill-opacity: 1; stroke: rgb(68, 68, 68); stroke-opacity: 1;"/></g></g></g><rect class="legendtoggle" x="0" y="-13.200000000000001" width="127.46875" height="26.400000000000002" style="fill: rgb(0, 0, 0); fill-opacity: 0;"/></g><g class="traces" transform="translate(0,44.6)" style="opacity: 1;"><text class="legendtext" text-anchor="start" x="40" y="7.0200000000000005" style="font-family: 'Open Sans', verdana, arial, sans-serif; font-size: 18px; fill: rgb(42, 63, 95); fill-opacity: 1; white-space: pre;">send recv</text><g class="layers" style="opacity: 1;"><g class="legendfill"/><g class="legendlines"/><g class="legendsymbols"><g class="legendpoints"><path class="legendpie" d="M6,6H-6V-6H6Z" transform="translate(20,0)" style="stroke-width: 0; fill: rgb(239, 85, 59); fill-opacity: 1; stroke: rgb(68, 68, 68); stroke-opacity: 1;"/></g></g></g><rect class="legendtoggle" x="0" y="-13.200000000000001" width="127.46875" height="26.400000000000002" style="fill: rgb(0, 0, 0); fill-opacity: 0;"/></g><g class="traces" transform="translate(0,71)" style="opacity: 1;"><text class="legendtext" text-anchor="start" x="40" y="7.0200000000000005" style="font-family: 'Open Sans', verdana, arial, sans-serif; font-size: 18px; fill: rgb(42, 63, 95); fill-opacity: 1; white-space: pre;">gather</text><g class="layers" style="opacity: 1;"><g class="legendfill"/><g class="legendlines"/><g class="legendsymbols"><g class="legendpoints"><path class="legendpie" d="M6,6H-6V-6H6Z" transform="translate(20,0)" style="stroke-width: 0; fill: rgb(0, 204, 150); fill-opacity: 1; stroke: rgb(68, 68, 68); stroke-opacity: 1;"/></g></g></g><rect class="legendtoggle" x="0" y="-13.200000000000001" width="127.46875" height="26.400000000000002" style="fill: rgb(0, 0, 0); fill-opacity: 0;"/></g></g></g><rect class="scrollbar" rx="20" ry="3" width="0" height="0" x="0" y="0" style="fill: rgb(128, 139, 164); fill-opacity: 1;"/></g><g class="g-gtitle"/></g></svg>